<svg width="55" height="70" viewBox="0 0 55 70" fill="none" xmlns="http://www.w3.org/2000/svg">
<path d="M49.8433 64.4638L27.4998 70L5.15601 64.4638L0 13.0627H55L49.8433 64.4638Z" fill="#2062AF"/>
<path d="M27.5 17.2266V65.5849L27.5505 65.5976L45.6322 61.1172L49.8058 17.2266H27.5V17.2266Z" fill="#3C9CD7"/>
<path d="M14.8177 6.40707V3.34769H19.6685V0H11.1797V9.46193H19.6685V6.40707H14.8177ZM28.3944 3.34769H31.7858V0H23.2962V3.34769C24.432 4.39284 25.0243 4.89308 26.667 6.40466C25.7067 6.40466 23.2962 6.40783 23.2962 6.40768V9.46193H31.7858V6.40707L28.3944 3.34769ZM40.4269 3.34769H43.8181V0H35.3281V3.34769C36.4639 4.39284 37.0566 4.89308 38.6993 6.40466C37.7393 6.40466 35.3281 6.40783 35.3281 6.40768V9.46193H43.8182V6.40707L40.4269 3.34769V3.34769Z" fill="black"/>
<path d="M27.4802 30.0791L11.4883 36.2078L12.0186 42.2757L27.4802 36.1924L43.9274 29.7216L44.6093 23.5144L27.4802 30.0791Z" fill="white"/>
<path d="M11.4883 36.2078L12.0186 42.2757L27.4802 36.1924V30.0791L11.4883 36.2078V36.2078Z" fill="url(#paint0_linear)"/>
<path d="M44.6095 23.5144L27.4805 30.0789V36.1923L43.9276 29.7215L44.6095 23.5144Z" fill="url(#paint1_linear)"/>
<path d="M11.5117 36.2073L12.0422 42.2752L35.7662 42.3448L35.2355 50.4352L27.4289 52.4576L19.9246 50.714L19.4698 45.6923H12.4969L13.4065 55.3869L27.5047 59.2227L41.5265 55.4565L43.3457 36.2073H11.5117V36.2073Z" fill="url(#paint2_linear)"/>
<path opacity="0.05" d="M27.4803 36.2073H11.4883L12.0186 42.2752L27.4803 42.3206V36.2073ZM27.4803 52.4383L27.4045 52.4577L19.9011 50.7142L19.4464 45.6925H12.4737L13.3831 55.387L27.4803 59.2229V52.4383Z" fill="black"/>
<path d="M10.0469 23.5144H44.6083L43.9264 29.7216H10.8805L10.0469 23.5144V23.5144Z" fill="url(#paint3_linear)"/>
<path opacity="0.05" d="M27.4792 23.5144H10.0469L10.8805 29.7216H27.4792V23.5144V23.5144Z" fill="black"/>
<defs>
<linearGradient id="paint0_linear" x1="19.4843" y1="42.2758" x2="19.4843" y2="30.0793" gradientUnits="userSpaceOnUse">
<stop offset="0.387" stop-color="#D1D3D4" stop-opacity="0"/>
<stop offset="1" stop-color="#D1D3D4"/>
</linearGradient>
<linearGradient id="paint1_linear" x1="36.0448" y1="36.1924" x2="36.0448" y2="23.5146" gradientUnits="userSpaceOnUse">
<stop offset="0.387" stop-color="#D1D3D4" stop-opacity="0"/>
<stop offset="1" stop-color="#D1D3D4"/>
</linearGradient>
<linearGradient id="paint2_linear" x1="11.5117" y1="47.7152" x2="43.3455" y2="47.7152" gradientUnits="userSpaceOnUse">
<stop stop-color="#E8E7E5"/>
<stop offset="1" stop-color="white"/>
</linearGradient>
<linearGradient id="paint3_linear" x1="10.0469" y1="26.618" x2="44.6081" y2="26.618" gradientUnits="userSpaceOnUse">
<stop stop-color="#E8E7E5"/>
<stop offset="1" stop-color="white"/>
</linearGradient>
</defs>
</svg>
