<svg width="20" height="20" viewBox="0 0 20 20" fill="none" xmlns="http://www.w3.org/2000/svg">
<path d="M15.2082 17.0833C15.5533 17.0832 15.8333 17.3629 15.8333 17.7081C15.8333 18.0533 15.5537 18.3332 15.2085 18.3333L4.37518 18.3364C4.03 18.3365 3.75 18.0568 3.75 17.7116C3.75 17.3664 4.02964 17.0865 4.37482 17.0864L15.2082 17.0833ZM9.70683 1.67645L9.79167 1.67075C10.1081 1.67075 10.3696 1.90588 10.411 2.21094L10.4167 2.29575L10.4158 13.6999L13.5173 10.5997C13.7393 10.3778 14.0865 10.3576 14.3312 10.5392L14.4012 10.5998C14.6231 10.8217 14.6432 11.1688 14.4617 11.4135L14.4012 11.4836L10.2364 15.6474C10.0147 15.8692 9.66767 15.8894 9.423 15.7082L9.35292 15.6477L5.18336 11.4838C4.93912 11.2399 4.93884 10.8443 5.18276 10.6C5.40449 10.3779 5.7517 10.3575 5.9965 10.5389L6.06664 10.5993L9.16583 13.6941L9.16667 2.29575C9.16667 1.97934 9.40183 1.71784 9.70683 1.67645L9.79167 1.67075L9.70683 1.67645Z" fill="#C8E8E6"/>
</svg>
