<svg width="16" height="16" viewBox="0 0 16 16" fill="none" xmlns="http://www.w3.org/2000/svg">
<path d="M7.87615 0.442078C7.78764 0.442538 7.70288 0.477929 7.64029 0.540564C7.5777 0.603198 7.54234 0.688017 7.54188 0.776594V11.1641L3.24541 7.69635C3.17579 7.64061 3.08689 7.61484 2.99828 7.62469C2.90966 7.63454 2.82859 7.67922 2.77289 7.7489C2.71719 7.81857 2.69143 7.90753 2.70128 7.99622C2.71112 8.0849 2.75577 8.16603 2.82539 8.22177L7.66614 12.1274C7.69266 12.1481 7.72216 12.1646 7.75364 12.1764H7.76939C7.83401 12.1988 7.90428 12.1988 7.9689 12.1764H7.98465C8.01613 12.1646 8.04563 12.1481 8.07216 12.1274L12.9287 8.21827C12.9983 8.16253 13.0429 8.08139 13.0528 7.99271C13.0626 7.90403 13.0369 7.81507 12.9812 7.74539C12.9255 7.67572 12.8444 7.63104 12.7558 7.62119C12.6672 7.61133 12.5783 7.63711 12.5086 7.69285L8.21041 11.1641V0.776594C8.20995 0.688017 8.17459 0.603198 8.112 0.540564C8.04941 0.477929 7.96466 0.442538 7.87615 0.442078Z" fill="white"/>
<path d="M15.4165 12.0118C15.328 12.0123 15.2433 12.0477 15.1807 12.1103C15.1181 12.173 15.0827 12.2578 15.0823 12.3464V14.7773H0.670284V12.3481C0.670284 12.2592 0.634974 12.1738 0.572123 12.111C0.509272 12.0481 0.424027 12.0127 0.335142 12.0127C0.246257 12.0127 0.161012 12.0481 0.0981608 12.111C0.0353095 12.1738 0 12.2592 0 12.3481V15.117C-1.20461e-06 15.2059 0.0351602 15.2912 0.0977976 15.3542C0.160435 15.4172 0.245453 15.4528 0.334267 15.4533H15.4165C15.5053 15.4528 15.5904 15.4172 15.653 15.3542C15.7156 15.2912 15.7508 15.2059 15.7508 15.117V12.3481C15.7508 12.2592 15.7156 12.174 15.653 12.1109C15.5904 12.0479 15.5053 12.0123 15.4165 12.0118Z" fill="white"/>
</svg>
