<svg width="52" height="78" viewBox="0 0 52 78" fill="none" xmlns="http://www.w3.org/2000/svg">
<g clip-path="url(#clip0)">
<path d="M12.7861 77.1258C19.8441 77.1258 25.5723 71.3987 25.5723 64.3422V51.5586H12.7861C5.72819 51.5586 0 57.2856 0 64.3422C0 71.3987 5.72819 77.1258 12.7861 77.1258Z" fill="#0ACF83"/>
<path d="M0 38.775C0 31.7185 5.72819 25.9915 12.7861 25.9915H25.5723V51.5586H12.7861C5.72819 51.5586 0 45.8316 0 38.775Z" fill="#A259FF"/>
<path d="M0 13.2078C0 6.15124 5.72819 0.424194 12.7861 0.424194H25.5723V25.9914H12.7861C5.72819 25.9914 0 20.2643 0 13.2078Z" fill="#F24E1E"/>
<path d="M25.5723 0.424194H38.3584C45.4164 0.424194 51.1446 6.15124 51.1446 13.2078C51.1446 20.2643 45.4164 25.9914 38.3584 25.9914H25.5723V0.424194Z" fill="#FF7262"/>
<path d="M51.1446 38.775C51.1446 45.8316 45.4164 51.5586 38.3584 51.5586C31.3005 51.5586 25.5723 45.8316 25.5723 38.775C25.5723 31.7185 31.3005 25.9915 38.3584 25.9915C45.4164 25.9915 51.1446 31.7185 51.1446 38.775Z" fill="#1ABCFE"/>
</g>
<defs>
<clipPath id="clip0">
<rect y="0.424194" width="51.1446" height="76.7169" fill="white"/>
</clipPath>
</defs>
</svg>
