<svg width="79" height="78" viewBox="0 0 79 78" fill="none" xmlns="http://www.w3.org/2000/svg">
<g clip-path="url(#clip0)">
<path d="M39.1834 0.424194C17.5341 0.424194 0 17.8502 0 39.3659C0 57.6669 12.6354 72.8559 29.6826 77.1378C29.4859 76.6506 29.3892 75.9679 29.3892 75.2885V68.6667H24.4904C21.846 68.6667 19.3949 67.5001 18.3178 65.3558C17.0439 63.0193 16.8472 59.4168 13.6158 57.1764C12.6354 56.3976 13.4191 55.6187 14.4962 55.7149C16.5537 56.2981 18.2178 57.6636 19.7851 59.7051C21.3524 61.75 22.0394 62.2372 24.9773 62.2372C26.3479 62.2372 28.5021 62.1411 30.463 61.8461C31.5401 59.1185 33.4009 56.6859 35.6552 55.5193C22.5296 53.9616 16.2603 47.5354 16.2603 38.7727C16.2603 34.9746 17.9243 31.3721 20.6688 28.2568C19.7884 25.2375 18.6113 19.0069 21.0623 16.5742C26.9415 16.5742 30.4663 20.3723 31.3467 21.3434C34.2846 20.369 37.5193 19.7857 40.8474 19.7857C44.2755 19.7857 47.4102 20.369 50.3481 21.3434C51.2285 20.369 54.7567 16.5742 60.6325 16.5742C62.9835 18.9108 61.9064 25.2375 60.926 28.2568C63.6705 31.276 65.2378 34.9746 65.2378 38.7727C65.2378 47.5354 59.0652 53.9616 46.0396 55.3238C49.6645 57.1731 52.2122 62.4294 52.2122 66.3236V75.1924C52.2122 75.484 52.1155 75.7757 52.1155 76.0673C67.3954 70.811 78.3667 56.4042 78.3667 39.3659C78.3667 17.8502 60.8326 0.424194 39.1834 0.424194Z" fill="black"/>
</g>
<defs>
<clipPath id="clip0">
<rect y="0.424194" width="78.3667" height="76.7169" fill="white"/>
</clipPath>
</defs>
</svg>
