<svg width="50" height="70" viewBox="0 0 50 70" fill="none" xmlns="http://www.w3.org/2000/svg">
<g clip-path="url(#clip0)">
<path d="M49.5866 13.7219L45.077 64.2073L24.806 69.8232L4.59088 64.215L0.0859375 13.7219H49.5866Z" fill="#E44D26"/>
<path d="M24.8359 65.5304L41.2159 60.9924L45.0695 17.8503H24.8359V65.5304Z" fill="#F16529"/>
<path d="M16.0693 30.2362H24.8359V24.0435H9.29688L9.44512 25.7048L10.9683 42.7705H24.8359V36.5777H16.6357L16.0693 30.2362V30.2362ZM17.466 45.867H11.2452L12.1133 55.5906L24.8074 59.1119L24.8359 59.1041V52.661L24.8087 52.6682L17.9072 50.8059L17.466 45.867V45.867Z" fill="#EBEBEB"/>
<path d="M4.69141 0H7.84062V3.10928H10.7215V0H13.8709V9.41568H10.7217V6.26277H7.84081V9.41568H4.6916V0H4.69141ZM18.012 3.12247H15.24V0H23.9355V3.12247H21.1618V9.41568H18.0126V3.12247H18.0124H18.012ZM25.3155 0H28.5992L30.6191 3.30842L32.6371 0H35.9221V9.41568H32.7857V4.74875L30.6191 8.09654H30.5648L28.3968 4.74875V9.41568H25.3155V0ZM37.4894 0H40.6396V6.30349H45.0682V9.41568H37.4892V0H37.4894Z" fill="black"/>
<path d="M24.8146 42.7705H32.4455L31.726 50.8021L24.8145 52.6663V59.109L37.5186 55.5906L37.6117 54.5443L39.0682 38.2407L39.2193 36.5777H24.8146V42.7705ZM24.8146 30.2211V30.2362H39.7832L39.9074 28.8444L40.1899 25.7048L40.3379 24.0435H24.8146V30.2213V30.2211Z" fill="white"/>
</g>
<defs>
<clipPath id="clip0">
<rect width="49.6774" height="70" fill="white"/>
</clipPath>
</defs>
</svg>
