<svg width="55" height="78" viewBox="0 0 55 78" fill="none" xmlns="http://www.w3.org/2000/svg">
<g clip-path="url(#clip0)">
<path d="M54.5317 15.4629L49.5894 70.7926L27.3733 76.9473L5.21847 70.8011L0.28125 15.4629H54.5317Z" fill="#E44D26"/>
<path d="M27.4062 72.2427L45.358 67.2693L49.5813 19.9874H27.4062V72.2427Z" fill="#F16529"/>
<path d="M17.7993 33.5617H27.407V26.7747H10.377L10.5394 28.5955L12.2088 47.2987H27.407V40.5117H18.42L17.7993 33.5617ZM19.3299 50.6923H12.5122L13.4636 61.3489L27.3758 65.2082L27.407 65.1997V58.1383L27.3772 58.1462L19.8135 56.1052L19.3299 50.6923Z" fill="#EBEBEB"/>
<path d="M5.32812 0.424194H8.77952V3.83183H11.9368V0.424194H15.3884V10.7434H11.937V7.28791H8.77973V10.7434H5.32834V0.424194H5.32812ZM19.9269 3.84628H16.8889V0.424194H26.4188V3.84628H23.3789V10.7434H19.9275V3.84628H19.9273H19.9269ZM27.9313 0.424194H31.53L33.7438 4.05008L35.9554 0.424194H39.5556V10.7434H36.1183V5.62862L33.7438 9.29764H33.6842L31.3082 5.62862V10.7434H27.9313V0.424194ZM41.2732 0.424194H44.7257V7.33254H49.5793V10.7434H41.273V0.424194H41.2732Z" fill="black"/>
<path d="M27.383 47.2987H35.7461L34.9576 56.101L27.3828 58.1441V65.205L41.306 61.3489L41.408 60.2022L43.0042 42.3342L43.1699 40.5117H27.383V47.2987ZM27.383 33.5451V33.5617H43.7879L43.924 32.0363L44.2336 28.5955L44.3958 26.7747H27.383V33.5454V33.5451Z" fill="white"/>
</g>
<defs>
<clipPath id="clip0">
<rect x="0.1875" y="0.424194" width="54.4443" height="76.7169" fill="white"/>
</clipPath>
</defs>
</svg>
