<svg width="74" height="78" viewBox="0 0 74 78" fill="none" xmlns="http://www.w3.org/2000/svg">
<g clip-path="url(#clip0)">
<path d="M72.1983 36.6608L39.5151 4.04104L36.3481 0.880249L11.745 25.4356L0.4946 36.6608C-0.067353 37.2245 -0.382813 37.9874 -0.382812 38.7826C-0.382812 39.5779 -0.067353 40.3407 0.4946 40.9045L22.9717 63.338L36.3481 76.685L60.9479 52.1297L61.331 51.7507L72.1983 40.9214C72.4799 40.6424 72.7034 40.3105 72.8559 39.9449C73.0085 39.5793 73.087 39.1871 73.087 38.7911C73.087 38.3951 73.0085 38.0029 72.8559 37.6373C72.7034 37.2717 72.4799 36.9398 72.1983 36.6608ZM36.3481 49.9909L25.1181 38.7826L36.3481 27.5744L47.5748 38.7826L36.3481 49.9909Z" fill="#2684FF"/>
<path d="M36.3473 27.5744C32.8154 24.0502 30.8244 19.2742 30.8092 14.2897C30.7939 9.30524 32.7557 4.51726 36.2659 0.971619L11.6934 25.4863L25.0663 38.8334L36.3473 27.5744Z" fill="url(#paint0_linear)"/>
<path d="M47.6048 38.7523L36.3477 49.991C39.8929 53.5303 41.8845 58.33 41.8845 63.3347C41.8845 68.3393 39.8929 73.139 36.3477 76.6783L60.988 52.0993L47.6048 38.7523Z" fill="url(#paint1_linear)"/>
</g>
<defs>
<linearGradient id="paint0_linear" x1="34.3366" y1="16.2341" x2="18.6849" y2="31.9128" gradientUnits="userSpaceOnUse">
<stop offset="0.18" stop-color="#0052CC"/>
<stop offset="1" stop-color="#2684FF"/>
</linearGradient>
<linearGradient id="paint1_linear" x1="2861.36" y1="3291.67" x2="4460.82" y2="4330.61" gradientUnits="userSpaceOnUse">
<stop offset="0.18" stop-color="#0052CC"/>
<stop offset="1" stop-color="#2684FF"/>
</linearGradient>
<clipPath id="clip0">
<rect x="0.494141" y="0.424194" width="72.5923" height="76.7169" fill="white"/>
</clipPath>
</defs>
</svg>
