<svg width="55" height="78" viewBox="0 0 55 78" fill="none" xmlns="http://www.w3.org/2000/svg">
<g clip-path="url(#clip0)">
<path d="M54.4443 16.0363H0L5.10415 71.4828L27.2191 77.766L49.334 71.4828L54.4443 16.0363Z" fill="#E6A329"/>
<path d="M27.2188 20.5537V73.0674L45.1369 67.9819L49.4961 20.5537H27.2188Z" fill="#F1BF22"/>
<path d="M41.4731 27.356H13.9229L12.0039 48.1158L12.0438 47.9868H35.4493L34.686 56.7698L27.2183 58.9225L19.6402 56.736L19.1865 51.4201H12.3074L13.2884 62.0426L27.2183 66.0042L41.1543 62.0426L43.0733 41.1938H18.2331L18.5519 34.2472H35.7865L36.044 38.2272H42.9844L41.4731 27.356Z" fill="white"/>
<path d="M27.2244 27.356H13.9229L12.0039 48.1158L12.0438 47.9868H27.2244V41.2153H19.2018L19.5207 34.2687H27.2244V27.356ZM19.2018 51.4201H12.3074L13.2884 62.0365L27.2183 65.9919V58.9287L19.6402 56.736L19.2018 51.4201Z" fill="#EBEBEB"/>
<path d="M21.9248 7.85828H17.0781V11.3438H25.3919V0.991577H21.9248V7.85828ZM37.3629 1.04685H28.9142V4.67061C30.0424 5.80073 30.6309 6.34429 32.2925 7.98112H28.9142V11.2855H37.3629V7.98726L33.9847 4.67675H37.3629V1.04685Z" fill="#231F20"/>
</g>
<defs>
<clipPath id="clip0">
<rect y="0.991577" width="54.4443" height="76.7744" fill="white"/>
</clipPath>
</defs>
</svg>
