<svg width="50" height="70" viewBox="0 0 50 70" fill="none" xmlns="http://www.w3.org/2000/svg">
<g clip-path="url(#clip0)">
<path d="M49.6402 13.7173H0L4.65377 64.2713L24.8173 70.0001L44.9809 64.2713L49.6402 13.7173Z" fill="#E6A329"/>
<path d="M24.8164 17.8359V65.7159L41.1535 61.0791L45.1281 17.8359H24.8164Z" fill="#F1BF22"/>
<path d="M37.8142 24.0381H12.695L10.9453 42.9661L10.9816 42.8485H32.3219L31.626 50.8565L24.8172 52.8193L17.9078 50.8257L17.4941 45.9789H11.222L12.1164 55.6641L24.8172 59.2761L37.5235 55.6641L39.2732 36.6549H16.6249L16.9156 30.3213H32.6294L32.8642 33.9501H39.1922L37.8142 24.0381Z" fill="white"/>
<path d="M24.8228 24.0381H12.695L10.9453 42.9661L10.9816 42.8485H24.8228V36.6745H17.5081L17.7988 30.3409H24.8228V24.0381ZM17.5081 45.9789H11.222L12.1164 55.6585L24.8172 59.2649V52.8249L17.9078 50.8257L17.5081 45.9789Z" fill="#EBEBEB"/>
<path d="M19.9913 6.2608H15.5723V9.4388H23.1525V0H19.9913V6.2608ZM34.0672 0.0504H26.364V3.3544C27.3926 4.3848 27.9292 4.8804 29.4441 6.3728H26.364V9.3856H34.0672V6.3784L30.987 3.36H34.0672V0.0504Z" fill="#231F20"/>
</g>
<defs>
<clipPath id="clip0">
<rect width="49.6402" height="70" fill="white"/>
</clipPath>
</defs>
</svg>
