<?xml version="1.0" encoding="UTF-8"?>
<svg width="36px" height="32px" viewBox="0 0 36 32" version="1.1" xmlns="http://www.w3.org/2000/svg" xmlns:xlink="http://www.w3.org/1999/xlink">
    <!-- Generator: Sketch 52.5 (67469) - http://www.bohemiancoding.com/sketch -->
    <title>S.</title>
    <desc>Created with Sketch.</desc>
    <g id="Page-1" stroke="none" stroke-width="1" fill="none" fill-rule="evenodd">
        <g id="Desktop-HD-Copy-12" transform="translate(-51.000000, -61.000000)" fill="#313234">
            <path d="M73.7245736,69.5351382 L67.7619374,71.2147541 C67.5519855,69.829071 66.4182448,67.4776088 62.8070707,67.4776088 C60.3296374,67.4776088 58.7340023,69.0312535 58.7340023,70.6688789 C58.7340023,72.0965524 59.6158006,73.1463123 61.67333,73.5242258 L65.6624176,74.280053 C71.3311211,75.3298129 74.2704488,78.9829773 74.2704488,83.2240073 C74.2704488,87.8849412 70.365342,92.6298559 63.2689651,92.6298559 C55.0388475,92.6298559 51.5116542,87.2970757 51.0917503,83.0980361 L57.1803577,81.6283722 C57.4323001,84.357748 59.2798775,86.7512005 63.3529459,86.7512005 C65.9563504,86.7512005 67.5519855,85.4914886 67.5519855,83.6439112 C67.5519855,82.132257 66.334264,81.0405067 64.3607154,80.6625931 L60.287647,79.906766 C55.2487995,78.9409869 52.1835006,75.5817552 52.1835006,71.1727637 C52.1835006,65.5460506 57.1383673,61.5989534 62.8490611,61.5989534 C70.2813612,61.5989534 73.0947177,66.0499354 73.7245736,69.5351382 Z M77.7556516,88.0529028 C77.7556516,85.7014406 79.6872099,83.7698824 82.038672,83.7698824 C84.3901342,83.7698824 86.3636828,85.7014406 86.3636828,88.0529028 C86.3636828,90.3623746 84.3901342,92.3779136 82.038672,92.3779136 C79.6872099,92.3779136 77.7556516,90.3623746 77.7556516,88.0529028 Z" id="S."></path>
        </g>
    </g>
</svg>