<svg width="78" height="78" viewBox="0 0 78 78" fill="none" xmlns="http://www.w3.org/2000/svg">
<g clip-path="url(#clip0)">
<path fill-rule="evenodd" clip-rule="evenodd" d="M28.6068 0.424194C24.3745 0.427322 20.9492 3.86199 20.9523 8.09432C20.9492 12.3267 24.3776 15.7613 28.6099 15.7644H36.2676V8.09745C36.2707 3.86512 32.8423 0.430451 28.6068 0.424194C28.61 0.424194 28.61 0.424194 28.6068 0.424194V0.424194ZM28.6068 20.882H8.19278C3.96045 20.8852 0.532037 24.3198 0.535165 28.5522C0.528909 32.7845 3.95732 36.2192 8.18965 36.2254H28.6068C32.8392 36.2223 36.2676 32.7876 36.2644 28.5553C36.2676 24.3198 32.8392 20.8852 28.6068 20.882Z" fill="#36C5F0"/>
<path fill-rule="evenodd" clip-rule="evenodd" d="M77.0985 28.5522C77.1016 24.3198 73.6732 20.8852 69.4409 20.882C65.2085 20.8852 61.7801 24.3198 61.7832 28.5522V36.2254H69.4409C73.6732 36.2223 77.1016 32.7876 77.0985 28.5522ZM56.6813 28.5522V8.09432C56.6844 3.86512 53.2591 0.430451 49.0268 0.424194C44.7944 0.427322 41.366 3.86199 41.3691 8.09432V28.5522C41.3629 32.7845 44.7913 36.2192 49.0236 36.2254C53.256 36.2223 56.6844 32.7876 56.6813 28.5522Z" fill="#2EB67D"/>
<path fill-rule="evenodd" clip-rule="evenodd" d="M49.0248 77.1412C53.2571 77.1381 56.6855 73.7034 56.6824 69.4711C56.6855 65.2387 53.2571 61.804 49.0248 61.8009H41.3672V69.4711C41.3641 73.7003 44.7925 77.1349 49.0248 77.1412ZM49.0248 56.6802H69.442C73.6743 56.6771 77.1027 53.2424 77.0996 49.0101C77.1059 44.7777 73.6774 41.343 69.4451 41.3368H49.0279C44.7956 41.3399 41.3672 44.7746 41.3703 49.0069C41.3672 53.2424 44.7925 56.6771 49.0248 56.6802Z" fill="#ECB22E"/>
<path fill-rule="evenodd" clip-rule="evenodd" d="M0.535158 49.01C0.53203 53.2423 3.96044 56.677 8.19278 56.6801C12.4251 56.677 15.8535 53.2423 15.8504 49.01V41.3398H8.19278C3.96044 41.343 0.53203 44.7776 0.535158 49.01ZM20.9524 49.01V69.4679C20.9461 73.7002 24.3745 77.1349 28.6068 77.1411C32.8392 77.138 36.2676 73.7033 36.2645 69.471V49.0162C36.2707 44.7839 32.8423 41.3492 28.61 41.343C24.3745 41.343 20.9492 44.7776 20.9524 49.01C20.9524 49.01 20.9524 49.0131 20.9524 49.01Z" fill="#E01E5A"/>
</g>
<defs>
<clipPath id="clip0">
<rect x="0.535156" y="0.424194" width="76.5636" height="76.7169" fill="white"/>
</clipPath>
</defs>
</svg>
